<?xml version="1.0" standalone="no"?>
<!DOCTYPE svg PUBLIC "-//W3C//DTD SVG 20010904//EN"
 "http://www.w3.org/TR/2001/REC-SVG-20010904/DTD/svg10.dtd">
<svg version="1.0" xmlns="http://www.w3.org/2000/svg"
 width="144.000000pt" height="144.000000pt" viewBox="0 0 144.000000 144.000000"
 preserveAspectRatio="xMidYMid meet">
<metadata>
Created by potrace 1.11, written by Peter Selinger 2001-2013
</metadata>
<g transform="translate(0.000000,144.000000) scale(0.100000,-0.100000)"
fill="#000000" stroke="none">
<path d="M570 1369 c-96 -23 -140 -41 -220 -94 -182 -118 -298 -330 -305 -555
-1 -30 1 -59 5 -65 3 -5 7 -23 9 -40 1 -16 14 -64 28 -105 72 -217 255 -384
477 -435 106 -24 179 -25 311 -1 130 24 311 148 397 273 32 47 80 151 92 198
15 60 17 71 21 150 8 171 -51 338 -165 468 -79 89 -223 176 -345 207 -80 20
-219 20 -305 -1z m295 -59 c105 -27 244 -110 307 -185 41 -47 92 -130 113
-184 154 -393 -141 -822 -565 -823 -280 0 -531 198 -596 469 -15 64 -12 225 6
287 64 224 243 395 462 440 75 16 203 14 273 -4z"/>
<path d="M587 1294 c-136 -27 -280 -129 -365 -255 -101 -150 -122 -360 -55
-531 29 -75 93 -166 155 -222 298 -270 780 -165 937 204 36 85 42 108 46 200
7 140 -22 242 -101 361 -131 197 -374 293 -617 243z"/>
</g>
</svg>
